<mxfile host="app.diagrams.net" modified="2023-09-07T20:27:05.302Z" agent="Mozilla/5.0 (Windows NT 10.0; Win64; x64) AppleWebKit/537.36 (KHTML, like Gecko) Chrome/114.0.0.0 YaBrowser/23.7.4.971 Yowser/2.5 Safari/537.36" etag="cfI5QFh0--46S826jJWb" version="21.7.2" type="github">
  <diagram name="Страница — 1" id="vQFvqb677pZ0hSL8vc41">
    <mxGraphModel dx="1386" dy="791" grid="1" gridSize="10" guides="1" tooltips="1" connect="1" arrows="1" fold="1" page="1" pageScale="1" pageWidth="827" pageHeight="1169" math="0" shadow="0">
      <root>
        <mxCell id="0" />
        <mxCell id="1" parent="0" />
        <mxCell id="o_ZAakJu_TmBCmDPFUB6-1" value="Читатель" style="shape=umlActor;verticalLabelPosition=bottom;verticalAlign=top;html=1;outlineConnect=0;" vertex="1" parent="1">
          <mxGeometry x="290" y="380" width="30" height="60" as="geometry" />
        </mxCell>
        <mxCell id="o_ZAakJu_TmBCmDPFUB6-2" value="Библиотекарь&lt;br&gt;" style="shape=umlActor;verticalLabelPosition=bottom;verticalAlign=top;html=1;outlineConnect=0;" vertex="1" parent="1">
          <mxGeometry x="290" y="520" width="30" height="60" as="geometry" />
        </mxCell>
        <mxCell id="o_ZAakJu_TmBCmDPFUB6-3" value="Гость" style="shape=umlActor;verticalLabelPosition=bottom;verticalAlign=top;html=1;outlineConnect=0;" vertex="1" parent="1">
          <mxGeometry x="290" y="190" width="30" height="60" as="geometry" />
        </mxCell>
        <mxCell id="o_ZAakJu_TmBCmDPFUB6-4" value="Админ&amp;nbsp;&lt;br&gt;" style="shape=umlActor;verticalLabelPosition=bottom;verticalAlign=top;html=1;outlineConnect=0;" vertex="1" parent="1">
          <mxGeometry x="290" y="665.8199999999999" width="30" height="60" as="geometry" />
        </mxCell>
        <mxCell id="o_ZAakJu_TmBCmDPFUB6-5" value="&lt;font style=&quot;font-size: 7px;&quot;&gt;Запуск приложения&lt;/font&gt;" style="ellipse;whiteSpace=wrap;html=1;" vertex="1" parent="1">
          <mxGeometry x="460" y="120" width="70" height="40" as="geometry" />
        </mxCell>
        <mxCell id="o_ZAakJu_TmBCmDPFUB6-6" value="" style="endArrow=none;html=1;rounded=0;exitX=0.5;exitY=0.5;exitDx=0;exitDy=0;exitPerimeter=0;" edge="1" parent="1" source="o_ZAakJu_TmBCmDPFUB6-3" target="o_ZAakJu_TmBCmDPFUB6-5">
          <mxGeometry width="50" height="50" relative="1" as="geometry">
            <mxPoint x="320" y="160" as="sourcePoint" />
            <mxPoint x="250" y="60" as="targetPoint" />
          </mxGeometry>
        </mxCell>
        <mxCell id="o_ZAakJu_TmBCmDPFUB6-7" value="&lt;font style=&quot;font-size: 10px;&quot;&gt;Регистрация&lt;/font&gt;" style="ellipse;whiteSpace=wrap;html=1;" vertex="1" parent="1">
          <mxGeometry x="272.5" y="40" width="65" height="40" as="geometry" />
        </mxCell>
        <mxCell id="o_ZAakJu_TmBCmDPFUB6-8" value="" style="endArrow=none;html=1;rounded=0;exitX=0.5;exitY=0;exitDx=0;exitDy=0;exitPerimeter=0;" edge="1" parent="1" source="o_ZAakJu_TmBCmDPFUB6-3" target="o_ZAakJu_TmBCmDPFUB6-7">
          <mxGeometry width="50" height="50" relative="1" as="geometry">
            <mxPoint x="280" y="166" as="sourcePoint" />
            <mxPoint x="240" y="120" as="targetPoint" />
          </mxGeometry>
        </mxCell>
        <mxCell id="o_ZAakJu_TmBCmDPFUB6-9" value="Вход&lt;br&gt;" style="ellipse;whiteSpace=wrap;html=1;" vertex="1" parent="1">
          <mxGeometry x="202.5" y="200" width="70" height="40" as="geometry" />
        </mxCell>
        <mxCell id="o_ZAakJu_TmBCmDPFUB6-10" value="" style="endArrow=none;html=1;rounded=0;exitX=0.5;exitY=0.5;exitDx=0;exitDy=0;exitPerimeter=0;" edge="1" parent="1" source="o_ZAakJu_TmBCmDPFUB6-3" target="o_ZAakJu_TmBCmDPFUB6-9">
          <mxGeometry width="50" height="50" relative="1" as="geometry">
            <mxPoint x="190" y="230" as="sourcePoint" />
            <mxPoint x="240" y="180" as="targetPoint" />
          </mxGeometry>
        </mxCell>
        <mxCell id="o_ZAakJu_TmBCmDPFUB6-11" value="" style="endArrow=none;html=1;rounded=0;exitX=0.75;exitY=0.1;exitDx=0;exitDy=0;exitPerimeter=0;entryX=0.099;entryY=0.755;entryDx=0;entryDy=0;entryPerimeter=0;" edge="1" parent="1" source="o_ZAakJu_TmBCmDPFUB6-1" target="o_ZAakJu_TmBCmDPFUB6-26">
          <mxGeometry width="50" height="50" relative="1" as="geometry">
            <mxPoint x="380" y="310" as="sourcePoint" />
            <mxPoint x="433.63" y="222.66000000000003" as="targetPoint" />
          </mxGeometry>
        </mxCell>
        <mxCell id="o_ZAakJu_TmBCmDPFUB6-12" value="&lt;font style=&quot;&quot;&gt;&lt;font style=&quot;font-size: 6px;&quot;&gt;Подтверждение номера телефона&lt;br&gt;&lt;/font&gt;&lt;br&gt;&lt;/font&gt;" style="ellipse;whiteSpace=wrap;html=1;" vertex="1" parent="1">
          <mxGeometry x="50" y="40" width="60" height="40" as="geometry" />
        </mxCell>
        <mxCell id="o_ZAakJu_TmBCmDPFUB6-13" value="&amp;lt;&amp;lt;include&amp;gt;&amp;gt;" style="html=1;verticalAlign=bottom;labelBackgroundColor=none;endArrow=open;endFill=0;dashed=1;rounded=0;" edge="1" parent="1" source="o_ZAakJu_TmBCmDPFUB6-7" target="o_ZAakJu_TmBCmDPFUB6-12">
          <mxGeometry width="160" relative="1" as="geometry">
            <mxPoint x="-10" y="39.70999999999998" as="sourcePoint" />
            <mxPoint x="150" y="39.70999999999998" as="targetPoint" />
            <Array as="points" />
          </mxGeometry>
        </mxCell>
        <mxCell id="o_ZAakJu_TmBCmDPFUB6-14" value="&amp;lt;&amp;lt;include&amp;gt;&amp;gt;" style="html=1;verticalAlign=bottom;labelBackgroundColor=none;endArrow=open;endFill=0;dashed=1;rounded=0;" edge="1" parent="1" source="o_ZAakJu_TmBCmDPFUB6-7" target="o_ZAakJu_TmBCmDPFUB6-15">
          <mxGeometry x="0.1257" width="160" relative="1" as="geometry">
            <mxPoint x="-60" y="150" as="sourcePoint" />
            <mxPoint x="20" y="140" as="targetPoint" />
            <Array as="points">
              <mxPoint x="240" y="90" />
              <mxPoint x="130" y="90" />
            </Array>
            <mxPoint as="offset" />
          </mxGeometry>
        </mxCell>
        <mxCell id="o_ZAakJu_TmBCmDPFUB6-15" value="&lt;font style=&quot;&quot;&gt;&lt;font style=&quot;font-size: 6px;&quot;&gt;Подтверждение адреса эл.почты&lt;/font&gt;&lt;br&gt;&lt;/font&gt;" style="ellipse;whiteSpace=wrap;html=1;" vertex="1" parent="1">
          <mxGeometry x="100" y="110" width="60" height="40" as="geometry" />
        </mxCell>
        <mxCell id="o_ZAakJu_TmBCmDPFUB6-16" value="&amp;lt;&amp;lt;include&amp;gt;&amp;gt;" style="html=1;verticalAlign=bottom;labelBackgroundColor=none;endArrow=open;endFill=0;dashed=1;rounded=0;" edge="1" parent="1" source="o_ZAakJu_TmBCmDPFUB6-9" target="o_ZAakJu_TmBCmDPFUB6-15">
          <mxGeometry width="160" relative="1" as="geometry">
            <mxPoint x="40" y="270" as="sourcePoint" />
            <mxPoint x="200" y="270" as="targetPoint" />
            <Array as="points">
              <mxPoint x="238" y="130" />
            </Array>
          </mxGeometry>
        </mxCell>
        <mxCell id="o_ZAakJu_TmBCmDPFUB6-17" value="" style="endArrow=block;endSize=16;endFill=0;html=1;rounded=0;exitX=0.5;exitY=0;exitDx=0;exitDy=0;exitPerimeter=0;" edge="1" parent="1" source="o_ZAakJu_TmBCmDPFUB6-1">
          <mxGeometry width="160" relative="1" as="geometry">
            <mxPoint x="300" y="390" as="sourcePoint" />
            <mxPoint x="305" y="270" as="targetPoint" />
            <mxPoint as="offset" />
          </mxGeometry>
        </mxCell>
        <mxCell id="o_ZAakJu_TmBCmDPFUB6-18" value="&lt;font style=&quot;font-size: 9px;&quot;&gt;Редактирование профиля&lt;/font&gt;" style="ellipse;whiteSpace=wrap;html=1;" vertex="1" parent="1">
          <mxGeometry x="92.5" y="360" width="75" height="50" as="geometry" />
        </mxCell>
        <mxCell id="o_ZAakJu_TmBCmDPFUB6-19" value="" style="endArrow=none;html=1;rounded=0;exitX=0.25;exitY=0.1;exitDx=0;exitDy=0;exitPerimeter=0;" edge="1" parent="1" source="o_ZAakJu_TmBCmDPFUB6-1" target="o_ZAakJu_TmBCmDPFUB6-18">
          <mxGeometry width="50" height="50" relative="1" as="geometry">
            <mxPoint x="362" y="468" as="sourcePoint" />
            <mxPoint x="448" y="370" as="targetPoint" />
          </mxGeometry>
        </mxCell>
        <mxCell id="o_ZAakJu_TmBCmDPFUB6-20" value="&amp;lt;&amp;lt;include&amp;gt;&amp;gt;" style="html=1;verticalAlign=bottom;labelBackgroundColor=none;endArrow=open;endFill=0;dashed=1;rounded=0;entryX=0.5;entryY=1;entryDx=0;entryDy=0;exitX=0.5;exitY=0;exitDx=0;exitDy=0;" edge="1" parent="1" source="o_ZAakJu_TmBCmDPFUB6-18" target="o_ZAakJu_TmBCmDPFUB6-15">
          <mxGeometry width="160" relative="1" as="geometry">
            <mxPoint x="140" y="360" as="sourcePoint" />
            <mxPoint x="190" y="490" as="targetPoint" />
          </mxGeometry>
        </mxCell>
        <mxCell id="o_ZAakJu_TmBCmDPFUB6-21" value="&amp;lt;&amp;lt;include&amp;gt;&amp;gt;" style="html=1;verticalAlign=bottom;labelBackgroundColor=none;endArrow=open;endFill=0;dashed=1;rounded=0;entryX=0.5;entryY=1;entryDx=0;entryDy=0;exitX=0.034;exitY=0.39;exitDx=0;exitDy=0;exitPerimeter=0;" edge="1" parent="1" source="o_ZAakJu_TmBCmDPFUB6-18" target="o_ZAakJu_TmBCmDPFUB6-12">
          <mxGeometry x="0.0168" y="10" width="160" relative="1" as="geometry">
            <mxPoint x="80" y="380" as="sourcePoint" />
            <mxPoint x="-120" y="400" as="targetPoint" />
            <Array as="points" />
            <mxPoint as="offset" />
          </mxGeometry>
        </mxCell>
        <mxCell id="o_ZAakJu_TmBCmDPFUB6-22" value="&lt;font style=&quot;font-size: 10px;&quot;&gt;Просмотр книг&lt;/font&gt;" style="ellipse;whiteSpace=wrap;html=1;" vertex="1" parent="1">
          <mxGeometry x="396" y="330" width="59" height="39.34" as="geometry" />
        </mxCell>
        <mxCell id="o_ZAakJu_TmBCmDPFUB6-23" value="" style="endArrow=none;html=1;rounded=0;exitX=1;exitY=0.3333333333333333;exitDx=0;exitDy=0;exitPerimeter=0;" edge="1" parent="1" source="o_ZAakJu_TmBCmDPFUB6-1" target="o_ZAakJu_TmBCmDPFUB6-22">
          <mxGeometry width="50" height="50" relative="1" as="geometry">
            <mxPoint x="440" y="459" as="sourcePoint" />
            <mxPoint x="526" y="361" as="targetPoint" />
            <Array as="points" />
          </mxGeometry>
        </mxCell>
        <mxCell id="o_ZAakJu_TmBCmDPFUB6-24" value="&amp;lt;&amp;lt;include&amp;gt;&amp;gt;" style="html=1;verticalAlign=bottom;labelBackgroundColor=none;endArrow=open;endFill=0;dashed=1;rounded=0;entryX=0;entryY=0.5;entryDx=0;entryDy=0;exitX=1;exitY=0;exitDx=0;exitDy=0;" edge="1" parent="1" source="o_ZAakJu_TmBCmDPFUB6-27" target="o_ZAakJu_TmBCmDPFUB6-25">
          <mxGeometry width="160" relative="1" as="geometry">
            <mxPoint x="520" y="330" as="sourcePoint" />
            <mxPoint x="470" y="380" as="targetPoint" />
          </mxGeometry>
        </mxCell>
        <mxCell id="o_ZAakJu_TmBCmDPFUB6-25" value="&lt;font style=&quot;font-size: 10px;&quot;&gt;Резервация книг&lt;/font&gt;" style="ellipse;whiteSpace=wrap;html=1;" vertex="1" parent="1">
          <mxGeometry x="500" y="480" width="70" height="46.67" as="geometry" />
        </mxCell>
        <mxCell id="o_ZAakJu_TmBCmDPFUB6-26" value="&lt;font style=&quot;font-size: 8px;&quot;&gt;Написание отзыва&lt;/font&gt;" style="ellipse;whiteSpace=wrap;html=1;" vertex="1" parent="1">
          <mxGeometry x="400" y="250" width="60" height="40" as="geometry" />
        </mxCell>
        <mxCell id="o_ZAakJu_TmBCmDPFUB6-27" value="&lt;font style=&quot;font-size: 8px;&quot;&gt;Работа с книгами&lt;/font&gt;" style="ellipse;whiteSpace=wrap;html=1;" vertex="1" parent="1">
          <mxGeometry x="347.63" y="500" width="73.75" height="49.16" as="geometry" />
        </mxCell>
        <mxCell id="o_ZAakJu_TmBCmDPFUB6-28" value="" style="endArrow=none;html=1;rounded=0;exitX=0.75;exitY=0.1;exitDx=0;exitDy=0;exitPerimeter=0;" edge="1" parent="1" source="o_ZAakJu_TmBCmDPFUB6-2" target="o_ZAakJu_TmBCmDPFUB6-27">
          <mxGeometry width="50" height="50" relative="1" as="geometry">
            <mxPoint x="320" y="410" as="sourcePoint" />
            <mxPoint x="406" y="390" as="targetPoint" />
          </mxGeometry>
        </mxCell>
        <mxCell id="o_ZAakJu_TmBCmDPFUB6-29" value="" style="endArrow=block;endSize=16;endFill=0;html=1;rounded=0;exitX=0.5;exitY=0;exitDx=0;exitDy=0;exitPerimeter=0;" edge="1" parent="1" source="o_ZAakJu_TmBCmDPFUB6-2">
          <mxGeometry width="160" relative="1" as="geometry">
            <mxPoint x="304.66" y="573.33" as="sourcePoint" />
            <mxPoint x="304.66" y="463.33000000000004" as="targetPoint" />
            <mxPoint as="offset" />
          </mxGeometry>
        </mxCell>
        <mxCell id="o_ZAakJu_TmBCmDPFUB6-30" value="" style="endArrow=block;endSize=16;endFill=0;html=1;rounded=0;exitX=0.5;exitY=0;exitDx=0;exitDy=0;exitPerimeter=0;" edge="1" parent="1" source="o_ZAakJu_TmBCmDPFUB6-4">
          <mxGeometry width="160" relative="1" as="geometry">
            <mxPoint x="305" y="721.67" as="sourcePoint" />
            <mxPoint x="304.66" y="600" as="targetPoint" />
            <mxPoint as="offset" />
          </mxGeometry>
        </mxCell>
        <mxCell id="o_ZAakJu_TmBCmDPFUB6-31" value="&lt;font style=&quot;font-size: 10px;&quot;&gt;Работа с пользователями&lt;br&gt;&lt;/font&gt;" style="ellipse;whiteSpace=wrap;html=1;" vertex="1" parent="1">
          <mxGeometry x="339.51" y="665.8199999999999" width="90" height="60" as="geometry" />
        </mxCell>
        <mxCell id="o_ZAakJu_TmBCmDPFUB6-32" value="Удаление профиля" style="ellipse;whiteSpace=wrap;html=1;" vertex="1" parent="1">
          <mxGeometry x="480" y="630" width="80" height="53.33" as="geometry" />
        </mxCell>
        <mxCell id="o_ZAakJu_TmBCmDPFUB6-33" value="Просмотр профиля" style="ellipse;whiteSpace=wrap;html=1;" vertex="1" parent="1">
          <mxGeometry x="385" y="386.66" width="70" height="46.67" as="geometry" />
        </mxCell>
        <mxCell id="o_ZAakJu_TmBCmDPFUB6-34" value="" style="endArrow=none;html=1;rounded=0;entryX=0.5;entryY=0.5;entryDx=0;entryDy=0;entryPerimeter=0;" edge="1" parent="1" source="o_ZAakJu_TmBCmDPFUB6-33" target="o_ZAakJu_TmBCmDPFUB6-1">
          <mxGeometry width="50" height="50" relative="1" as="geometry">
            <mxPoint x="180" y="620" as="sourcePoint" />
            <mxPoint x="215" y="532" as="targetPoint" />
          </mxGeometry>
        </mxCell>
        <mxCell id="o_ZAakJu_TmBCmDPFUB6-35" value="" style="endArrow=none;html=1;rounded=0;entryX=1;entryY=0.5;entryDx=0;entryDy=0;exitX=0.5;exitY=0.5;exitDx=0;exitDy=0;exitPerimeter=0;" edge="1" parent="1" source="o_ZAakJu_TmBCmDPFUB6-4" target="o_ZAakJu_TmBCmDPFUB6-40">
          <mxGeometry width="50" height="50" relative="1" as="geometry">
            <mxPoint x="60" y="533.8199999999999" as="sourcePoint" />
            <mxPoint x="146" y="435.82" as="targetPoint" />
          </mxGeometry>
        </mxCell>
        <mxCell id="o_ZAakJu_TmBCmDPFUB6-36" value="&amp;lt;&amp;lt;include&amp;gt;&amp;gt;" style="html=1;verticalAlign=bottom;labelBackgroundColor=none;endArrow=open;endFill=0;dashed=1;rounded=0;" edge="1" parent="1" target="o_ZAakJu_TmBCmDPFUB6-37">
          <mxGeometry width="160" relative="1" as="geometry">
            <mxPoint x="460" y="259.66" as="sourcePoint" />
            <mxPoint x="620" y="259.66" as="targetPoint" />
          </mxGeometry>
        </mxCell>
        <mxCell id="o_ZAakJu_TmBCmDPFUB6-37" value="&lt;font style=&quot;font-size: 9px;&quot;&gt;Редактирование отзыва&lt;/font&gt;" style="ellipse;whiteSpace=wrap;html=1;" vertex="1" parent="1">
          <mxGeometry x="560" y="233.32999999999998" width="80" height="53.34" as="geometry" />
        </mxCell>
        <mxCell id="o_ZAakJu_TmBCmDPFUB6-38" value="" style="endArrow=none;html=1;rounded=0;entryX=0;entryY=0.5;entryDx=0;entryDy=0;exitX=0.5;exitY=0.5;exitDx=0;exitDy=0;exitPerimeter=0;" edge="1" parent="1" source="o_ZAakJu_TmBCmDPFUB6-4" target="o_ZAakJu_TmBCmDPFUB6-31">
          <mxGeometry width="50" height="50" relative="1" as="geometry">
            <mxPoint x="150" y="835.8199999999999" as="sourcePoint" />
            <mxPoint x="200" y="785.8199999999999" as="targetPoint" />
          </mxGeometry>
        </mxCell>
        <mxCell id="o_ZAakJu_TmBCmDPFUB6-39" value="Удаление отзыва" style="ellipse;whiteSpace=wrap;html=1;" vertex="1" parent="1">
          <mxGeometry x="490" y="702.48" width="80" height="53.33" as="geometry" />
        </mxCell>
        <mxCell id="o_ZAakJu_TmBCmDPFUB6-40" value="&lt;font style=&quot;font-size: 8px;&quot;&gt;Работа с книгами&lt;/font&gt;" style="ellipse;whiteSpace=wrap;html=1;" vertex="1" parent="1">
          <mxGeometry x="188.13" y="671.24" width="73.75" height="49.16" as="geometry" />
        </mxCell>
        <mxCell id="o_ZAakJu_TmBCmDPFUB6-41" value="&lt;font style=&quot;font-size: 10px;&quot;&gt;Просмотр описания книги&lt;/font&gt;" style="ellipse;whiteSpace=wrap;html=1;" vertex="1" parent="1">
          <mxGeometry x="530" y="320.66" width="89" height="59.34" as="geometry" />
        </mxCell>
        <mxCell id="o_ZAakJu_TmBCmDPFUB6-42" value="&amp;lt;&amp;lt;include&amp;gt;&amp;gt;" style="html=1;verticalAlign=bottom;labelBackgroundColor=none;endArrow=open;endFill=0;dashed=1;rounded=0;exitX=1;exitY=0.5;exitDx=0;exitDy=0;" edge="1" parent="1" source="o_ZAakJu_TmBCmDPFUB6-22" target="o_ZAakJu_TmBCmDPFUB6-41">
          <mxGeometry width="160" relative="1" as="geometry">
            <mxPoint x="460" y="360" as="sourcePoint" />
            <mxPoint x="540" y="349.67" as="targetPoint" />
          </mxGeometry>
        </mxCell>
        <mxCell id="o_ZAakJu_TmBCmDPFUB6-43" value="Редактирование описания книг" style="ellipse;whiteSpace=wrap;html=1;" vertex="1" parent="1">
          <mxGeometry x="30" y="630" width="100" height="66.67" as="geometry" />
        </mxCell>
        <mxCell id="o_ZAakJu_TmBCmDPFUB6-44" value="Удаление книг" style="ellipse;whiteSpace=wrap;html=1;" vertex="1" parent="1">
          <mxGeometry x="30" y="702.48" width="100" height="66.67" as="geometry" />
        </mxCell>
        <mxCell id="o_ZAakJu_TmBCmDPFUB6-45" value="&amp;lt;&amp;lt;include&amp;gt;&amp;gt;" style="html=1;verticalAlign=bottom;labelBackgroundColor=none;endArrow=open;endFill=0;dashed=1;rounded=0;exitX=1;exitY=0;exitDx=0;exitDy=0;entryX=0.014;entryY=0.762;entryDx=0;entryDy=0;entryPerimeter=0;" edge="1" parent="1" source="o_ZAakJu_TmBCmDPFUB6-31" target="o_ZAakJu_TmBCmDPFUB6-32">
          <mxGeometry width="160" relative="1" as="geometry">
            <mxPoint x="470" y="685.8199999999999" as="sourcePoint" />
            <mxPoint x="630" y="685.8199999999999" as="targetPoint" />
          </mxGeometry>
        </mxCell>
        <mxCell id="o_ZAakJu_TmBCmDPFUB6-46" value="&amp;lt;&amp;lt;include&amp;gt;&amp;gt;" style="html=1;verticalAlign=bottom;labelBackgroundColor=none;endArrow=open;endFill=0;dashed=1;rounded=0;exitX=1;exitY=1;exitDx=0;exitDy=0;entryX=0.01;entryY=0.321;entryDx=0;entryDy=0;entryPerimeter=0;" edge="1" parent="1" source="o_ZAakJu_TmBCmDPFUB6-31" target="o_ZAakJu_TmBCmDPFUB6-39">
          <mxGeometry width="160" relative="1" as="geometry">
            <mxPoint x="10" y="365.82" as="sourcePoint" />
            <mxPoint x="540" y="715.8199999999999" as="targetPoint" />
          </mxGeometry>
        </mxCell>
        <mxCell id="o_ZAakJu_TmBCmDPFUB6-47" value="&amp;lt;&amp;lt;include&amp;gt;&amp;gt;" style="html=1;verticalAlign=bottom;labelBackgroundColor=none;endArrow=open;endFill=0;dashed=1;rounded=0;entryX=0.95;entryY=0.677;entryDx=0;entryDy=0;entryPerimeter=0;exitX=0.081;exitY=0.273;exitDx=0;exitDy=0;exitPerimeter=0;" edge="1" parent="1" source="o_ZAakJu_TmBCmDPFUB6-40" target="o_ZAakJu_TmBCmDPFUB6-43">
          <mxGeometry width="160" relative="1" as="geometry">
            <mxPoint x="190" y="655.8199999999999" as="sourcePoint" />
            <mxPoint x="129.10000000000014" y="678.0023999999999" as="targetPoint" />
          </mxGeometry>
        </mxCell>
        <mxCell id="o_ZAakJu_TmBCmDPFUB6-48" value="&amp;lt;&amp;lt;include&amp;gt;&amp;gt;" style="html=1;verticalAlign=bottom;labelBackgroundColor=none;endArrow=open;endFill=0;dashed=1;rounded=0;exitX=0.184;exitY=0.96;exitDx=0;exitDy=0;exitPerimeter=0;entryX=0.942;entryY=0.29;entryDx=0;entryDy=0;entryPerimeter=0;" edge="1" parent="1" source="o_ZAakJu_TmBCmDPFUB6-40" target="o_ZAakJu_TmBCmDPFUB6-44">
          <mxGeometry width="160" relative="1" as="geometry">
            <mxPoint x="151" y="705.8199999999999" as="sourcePoint" />
            <mxPoint x="120" y="729" as="targetPoint" />
          </mxGeometry>
        </mxCell>
      </root>
    </mxGraphModel>
  </diagram>
</mxfile>
